<mxfile host="app.diagrams.net" modified="2023-04-25T09:07:07.417Z" agent="Mozilla/5.0 (Windows NT 10.0; Win64; x64) AppleWebKit/537.36 (KHTML, like Gecko) Chrome/112.0.0.0 Safari/537.36" version="21.2.1" etag="0ik9ev6w4Z_erluH2rm1" type="github">
  <diagram name="第 1 页" id="dx4iHh_ImpBpZ8Xv-4ZB">
    <mxGraphModel>
      <root>
        <mxCell id="0" />
        <mxCell id="1" parent="0" />
      </root>
    </mxGraphModel>
  </diagram>
</mxfile>
